<svg width="64" height="19" viewBox="0 0 64 19" fill="none" xmlns="http://www.w3.org/2000/svg">
<path d="M1.28005 18C1.10405 18 0.960054 17.944 0.848054 17.832C0.736054 17.72 0.680054 17.576 0.680054 17.4V1.79999C0.680054 1.62399 0.736054 1.47999 0.848054 1.36799C0.960054 1.25599 1.10405 1.19999 1.28005 1.19999H4.44805C4.60805 1.19999 4.74405 1.25599 4.85605 1.36799C4.98405 1.47999 5.04805 1.62399 5.04805 1.79999V14.376H12.2961C12.4721 14.376 12.6161 14.44 12.7281 14.568C12.8561 14.68 12.9201 14.824 12.9201 15V17.4C12.9201 17.576 12.8561 17.72 12.7281 17.832C12.6161 17.944 12.4721 18 12.2961 18H1.28005Z" fill="black"/>
<path d="M21.6769 18.24C20.2049 18.24 18.9249 18 17.8369 17.52C16.7489 17.04 15.9009 16.32 15.2929 15.36C14.6849 14.384 14.3489 13.168 14.2849 11.712C14.2689 11.024 14.2609 10.336 14.2609 9.64799C14.2609 8.95999 14.2689 8.26399 14.2849 7.55999C14.3489 6.11999 14.6849 4.91199 15.2929 3.93599C15.9169 2.94399 16.7729 2.19999 17.8609 1.70399C18.9489 1.20799 20.2209 0.959991 21.6769 0.959991C23.1169 0.959991 24.3809 1.20799 25.4689 1.70399C26.5729 2.19999 27.4369 2.94399 28.0609 3.93599C28.6849 4.91199 29.0209 6.11999 29.0689 7.55999C29.1009 8.26399 29.1169 8.95999 29.1169 9.64799C29.1169 10.336 29.1009 11.024 29.0689 11.712C29.0049 13.168 28.6689 14.384 28.0609 15.36C27.4529 16.32 26.6049 17.04 25.5169 17.52C24.4289 18 23.1489 18.24 21.6769 18.24ZM21.6769 14.784C22.5249 14.784 23.2129 14.528 23.7409 14.016C24.2849 13.504 24.5729 12.688 24.6049 11.568C24.6369 10.864 24.6529 10.2 24.6529 9.57599C24.6529 8.95199 24.6369 8.30399 24.6049 7.63199C24.5729 6.87999 24.4289 6.27199 24.1729 5.80799C23.9329 5.32799 23.5969 4.97599 23.1649 4.75199C22.7329 4.52799 22.2369 4.41599 21.6769 4.41599C21.1329 4.41599 20.6449 4.52799 20.2129 4.75199C19.7809 4.97599 19.4369 5.32799 19.1809 5.80799C18.9249 6.27199 18.7809 6.87999 18.7489 7.63199C18.7329 8.30399 18.7249 8.95199 18.7249 9.57599C18.7249 10.2 18.7329 10.864 18.7489 11.568C18.7969 12.688 19.0849 13.504 19.6129 14.016C20.1409 14.528 20.8289 14.784 21.6769 14.784Z" fill="black"/>
<path d="M38.8348 18.24C37.3148 18.24 36.0028 17.992 34.8988 17.496C33.8108 16.984 32.9628 16.248 32.3548 15.288C31.7628 14.312 31.4348 13.128 31.3708 11.736C31.3548 11.048 31.3468 10.32 31.3468 9.55199C31.3468 8.76799 31.3548 8.02399 31.3708 7.31999C31.4348 5.95999 31.7708 4.80799 32.3788 3.86399C32.9868 2.91999 33.8428 2.19999 34.9468 1.70399C36.0508 1.20799 37.3468 0.959991 38.8348 0.959991C40.0348 0.959991 41.0988 1.11199 42.0268 1.41599C42.9548 1.70399 43.7308 2.09599 44.3548 2.59199C44.9948 3.08799 45.4748 3.63199 45.7948 4.22399C46.1308 4.81599 46.3068 5.39999 46.3228 5.97599C46.3388 6.11999 46.2908 6.23999 46.1788 6.33599C46.0828 6.43199 45.9628 6.47999 45.8188 6.47999H42.3148C42.1388 6.47999 42.0028 6.45599 41.9068 6.40799C41.8268 6.34399 41.7548 6.25599 41.6908 6.14399C41.5788 5.90399 41.4108 5.65599 41.1868 5.39999C40.9788 5.12799 40.6828 4.89599 40.2988 4.70399C39.9308 4.51199 39.4428 4.41599 38.8348 4.41599C37.9228 4.41599 37.2028 4.65599 36.6748 5.13599C36.1628 5.61599 35.8828 6.38399 35.8348 7.43999C35.7868 8.81599 35.7868 10.208 35.8348 11.616C35.8828 12.736 36.1788 13.544 36.7228 14.04C37.2668 14.536 37.9868 14.784 38.8828 14.784C39.4908 14.784 40.0268 14.68 40.4908 14.472C40.9708 14.264 41.3468 13.944 41.6188 13.512C41.8908 13.064 42.0268 12.496 42.0268 11.808V11.352H39.7708C39.5948 11.352 39.4428 11.296 39.3148 11.184C39.2028 11.056 39.1468 10.904 39.1468 10.728V8.95199C39.1468 8.77599 39.2028 8.63199 39.3148 8.51999C39.4428 8.39199 39.5948 8.32799 39.7708 8.32799H45.8188C45.9948 8.32799 46.1388 8.39199 46.2508 8.51999C46.3628 8.63199 46.4188 8.77599 46.4188 8.95199V11.688C46.4188 13.064 46.1068 14.24 45.4828 15.216C44.8588 16.192 43.9708 16.944 42.8188 17.472C41.6828 17.984 40.3548 18.24 38.8348 18.24Z" fill="black"/>
<path d="M56.0362 18.24C54.5642 18.24 53.2842 18 52.1962 17.52C51.1082 17.04 50.2602 16.32 49.6522 15.36C49.0442 14.384 48.7082 13.168 48.6442 11.712C48.6282 11.024 48.6202 10.336 48.6202 9.64799C48.6202 8.95999 48.6282 8.26399 48.6442 7.55999C48.7082 6.11999 49.0442 4.91199 49.6522 3.93599C50.2762 2.94399 51.1322 2.19999 52.2202 1.70399C53.3082 1.20799 54.5802 0.959991 56.0362 0.959991C57.4762 0.959991 58.7402 1.20799 59.8282 1.70399C60.9322 2.19999 61.7962 2.94399 62.4202 3.93599C63.0442 4.91199 63.3802 6.11999 63.4282 7.55999C63.4602 8.26399 63.4762 8.95999 63.4762 9.64799C63.4762 10.336 63.4602 11.024 63.4282 11.712C63.3642 13.168 63.0282 14.384 62.4202 15.36C61.8122 16.32 60.9642 17.04 59.8762 17.52C58.7882 18 57.5082 18.24 56.0362 18.24ZM56.0362 14.784C56.8842 14.784 57.5722 14.528 58.1002 14.016C58.6442 13.504 58.9322 12.688 58.9642 11.568C58.9962 10.864 59.0122 10.2 59.0122 9.57599C59.0122 8.95199 58.9962 8.30399 58.9642 7.63199C58.9322 6.87999 58.7882 6.27199 58.5322 5.80799C58.2922 5.32799 57.9562 4.97599 57.5242 4.75199C57.0922 4.52799 56.5962 4.41599 56.0362 4.41599C55.4922 4.41599 55.0042 4.52799 54.5722 4.75199C54.1402 4.97599 53.7962 5.32799 53.5402 5.80799C53.2842 6.27199 53.1402 6.87999 53.1082 7.63199C53.0922 8.30399 53.0842 8.95199 53.0842 9.57599C53.0842 10.2 53.0922 10.864 53.1082 11.568C53.1562 12.688 53.4442 13.504 53.9722 14.016C54.5002 14.528 55.1882 14.784 56.0362 14.784Z" fill="black"/>
</svg>
