<svg width="20" height="20" viewBox="0 0 20 20" fill="none" xmlns="http://www.w3.org/2000/svg">
<path opacity="0.92" d="M8.12507 1.25C11.9221 1.25 15.0001 4.32821 15.0001 8.12536C15.0001 9.68585 14.4803 11.1249 13.6043 12.2788L18.4739 17.1542C18.8398 17.5205 18.8394 18.1141 18.4731 18.48C18.1068 18.8459 17.5132 18.8455 17.1473 18.4792L12.2783 13.6049C11.1245 14.4809 9.68549 15.0007 8.12507 15.0007C4.32807 15.0007 1.25 11.9225 1.25 8.12536C1.25 4.32821 4.32807 1.25 8.12507 1.25ZM8.12507 3.125C5.36363 3.125 3.125 5.36372 3.125 8.12536C3.125 10.887 5.36363 13.1257 8.12507 13.1257C10.8865 13.1257 13.1251 10.887 13.1251 8.12536C13.1251 5.36372 10.8865 3.125 8.12507 3.125Z" fill="white"/>
</svg>
